<?xml version="1.0" encoding="iso-8859-1"?>
<!-- Generator: Adobe Illustrator 19.0.0, SVG Export Plug-In . SVG Version: 6.00 Build 0)  -->
<svg version="1.1" id="Capa_1" xmlns="http://www.w3.org/2000/svg" xmlns:xlink="http://www.w3.org/1999/xlink" x="0px" y="0px"
	 viewBox="0 0 512 512" style="enable-background:new 0 0 512 512;" xml:space="preserve">
<rect style="fill:#FFE500;" width="512" height="512"/>
<rect y="149.3" style="fill:#FFC404;" width="512" height="362.67"/>
<rect y="192" style="fill:#F19D00;" width="512" height="320"/>
<path style="fill:#FFFFFF;" d="M448,64c-0.7,0-1.2,0.3-1.8,0.4c-5.744-16.655-23.902-25.501-40.557-19.757
	S380.142,68.545,385.886,85.2c4.432,12.851,16.52,21.482,30.114,21.5h32c11.791,0,21.35-9.559,21.35-21.35S459.791,64,448,64L448,64
	z"/>
<path style="fill:#FFFFAE;" d="M85.3,64c-0.7,0-1.2,0.3-1.8,0.4c-5.744-16.655-23.902-25.501-40.557-19.757
	S17.442,68.545,23.186,85.2c4.432,12.851,16.521,21.482,30.114,21.5h32c11.791,0,21.35-9.559,21.35-21.35S97.091,64,85.3,64z"/>
<path style="fill:#FFFFFF;" d="M320,106.7c-0.7,0-1.2,0.3-1.8,0.4c-5.689-16.674-23.817-25.58-40.491-19.891
	s-25.58,23.817-19.891,40.491c4.406,12.914,16.538,21.596,30.183,21.6h32c11.764,0,21.3-9.536,21.3-21.3S331.764,106.7,320,106.7
	L320,106.7z"/>
<path style="fill:#FFFFAE;" d="M181.3,128c-5.094,0.039-10.103,1.308-14.6,3.7c-9.775-21.4-35.048-30.824-56.449-21.049
	S79.427,145.7,89.202,167.1c6.936,15.185,22.103,24.919,38.798,24.9h53.3c17.673,0,32-14.327,32-32S198.973,128,181.3,128z"/>
<rect y="256" style="fill:#8D2C00;" width="512" height="256"/>
<polygon style="fill:#8392B6;" points="384,170.7 362.7,149.3 362.7,213.3 384,213.3 "/>
<path style="fill:#F51E00;" d="M320,213.3l-21.3-64h42.7V128H207.9c-9.411,0.003-17.705,6.183-20.4,15.2L128,341.3h277.3l21.3-42.7
	v-85.3H320z"/>
<rect x="341.3" y="192" style="fill:#3C4E76;" width="64" height="149.33"/>
<rect x="384" y="192" style="fill:#292E51;" width="21.3" height="149.33"/>
<polygon style="fill:#AF0A00;" points="298.7,149.3 341.3,149.3 341.3,128 277.3,128 277.3,341.3 405.3,341.3 426.7,298.7 
	426.7,213.3 320,213.3 "/>
<circle style="fill:#3C4E76;" cx="181.3" cy="309.3" r="74.7"/>
<circle style="fill:#FFE500;" cx="181.3" cy="309.3" r="32"/>
<path style="fill:#F19D00;" d="M181.3,277.3c17.673,0,32,14.327,32,32s-14.327,32-32,32V277.3z"/>
<polygon style="fill:#840000;" points="277.3,170.7 305.8,170.7 298.7,149.3 277.3,149.3 "/>
<polygon style="fill:#FFFFFF;" points="277.3,149.3 298.7,213.3 213.3,192 213.3,149.3 "/>
<polygon style="fill:#D6E0FF;" points="298.7,213.3 277.3,149.3 277.3,208 "/>
<rect x="256" y="234.7" style="fill:#AF0A00;" width="42.7" height="21.33"/>
<rect x="277.3" y="234.7" style="fill:#840000;" width="21.3" height="21.33"/>
<circle style="fill:#292E51;" cx="341.3" cy="341.3" r="42.7"/>
<circle style="fill:#F19D00;" cx="341.3" cy="341.3" r="14.2"/>
<rect x="405.3" y="256" style="fill:#FFFFFF;" width="21.3" height="42.67"/>
<path style="fill:#FFB4B4;" d="M213.3,149.3V128h-5.5c-9.411,0.003-17.705,6.183-20.4,15.2l-1.8,6.1H213.3z"/>
<rect x="42.7" y="320" style="fill:#B05C26;" width="21.3" height="192"/>
<path style="fill:#FFBA82;" d="M42.7,384l0.7-1.3c11.41-22.823,2.157-50.573-20.665-61.983c-0.012-0.006-0.023-0.012-0.035-0.017
	l-1.3-0.7l-1,2c-11.066,22.991-1.4,50.6,21.591,61.666C42.226,383.779,42.463,383.891,42.7,384L42.7,384z"/>
<path style="fill:#FF8F58;" d="M64,384L64,384c-11.788-23.555-2.253-52.207,21.3-64l0,0C97.089,343.555,87.553,372.207,64,384
	L64,384z"/>
<path style="fill:#FFBA82;" d="M42.7,448l0.7-1.3c11.41-22.823,2.157-50.573-20.665-61.983c-0.012-0.006-0.023-0.012-0.035-0.017
	l-1.3-0.7l-1,2c-11.066,22.991-1.4,50.6,21.591,61.666C42.226,447.779,42.463,447.891,42.7,448L42.7,448z"/>
<path style="fill:#FF8F58;" d="M64,448L64,448c-11.788-23.555-2.253-52.207,21.3-64l0,0C97.089,407.555,87.553,436.207,64,448
	L64,448z"/>
<path style="fill:#FFBA82;" d="M42.7,512l0.7-1.3c11.41-22.823,2.157-50.573-20.665-61.983c-0.012-0.006-0.023-0.012-0.035-0.017
	l-1.3-0.7l-1,2c-11.066,22.991-1.4,50.6,21.591,61.666C42.226,511.779,42.463,511.891,42.7,512L42.7,512z"/>
<path style="fill:#FF8F58;" d="M64,512L64,512c-11.788-23.555-2.253-52.207,21.3-64l0,0C97.089,471.555,87.553,500.207,64,512
	L64,512z"/>
<rect x="213.3" y="320" style="fill:#B05C26;" width="21.3" height="192"/>
<path style="fill:#FFBA82;" d="M213.3,384l0.7-1.3c11.41-22.823,2.157-50.573-20.665-61.983c-0.012-0.006-0.023-0.012-0.035-0.017
	L192,320l-1,2c-11.066,22.991-1.4,50.6,21.591,61.666C212.826,383.779,213.063,383.891,213.3,384L213.3,384z"/>
<path style="fill:#FF8F58;" d="M234.7,384L234.7,384c-11.788-23.555-2.253-52.207,21.3-64l0,0
	C267.788,343.555,258.253,372.207,234.7,384L234.7,384z"/>
<path style="fill:#FFBA82;" d="M213.3,448l0.7-1.3c11.41-22.823,2.157-50.573-20.665-61.983c-0.012-0.006-0.023-0.012-0.035-0.017
	L192,384l-1,2c-11.066,22.991-1.4,50.6,21.591,61.666C212.826,447.779,213.063,447.891,213.3,448L213.3,448z"/>
<path style="fill:#FF8F58;" d="M234.7,448L234.7,448c-11.788-23.555-2.253-52.207,21.3-64l0,0
	C267.788,407.555,258.253,436.207,234.7,448L234.7,448z"/>
<path style="fill:#FFBA82;" d="M213.3,512l0.7-1.3c11.41-22.823,2.157-50.573-20.665-61.983c-0.012-0.006-0.023-0.012-0.035-0.017
	L192,448l-1,2c-11.066,22.991-1.4,50.6,21.591,61.666C212.826,511.779,213.063,511.891,213.3,512L213.3,512z"/>
<path style="fill:#FF8F58;" d="M234.7,512L234.7,512c-11.788-23.555-2.253-52.207,21.3-64l0,0
	C267.788,471.555,258.253,500.207,234.7,512L234.7,512z"/>
<rect x="448" y="320" style="fill:#B05C26;" width="21.3" height="192"/>
<path style="fill:#FF8F58;" d="M448.7,384l0.7-1.3c11.41-22.823,2.157-50.573-20.665-61.983c-0.012-0.006-0.023-0.012-0.035-0.017
	l-1.3-0.7l-1,2c-11.066,22.991-1.4,50.6,21.591,61.666C448.226,383.779,448.463,383.891,448.7,384L448.7,384z"/>
<path style="fill:#FF6D26;" d="M470,384L470,384c-11.789-23.555-2.253-52.207,21.3-64l0,0C503.089,343.555,493.553,372.207,470,384
	L470,384z"/>
<path style="fill:#FF8F58;" d="M448.7,448l0.7-1.3c11.41-22.823,2.157-50.573-20.665-61.983c-0.012-0.006-0.023-0.012-0.035-0.017
	l-1.3-0.7l-1,2c-11.066,22.991-1.4,50.6,21.591,61.666C448.226,447.779,448.463,447.891,448.7,448L448.7,448z"/>
<path style="fill:#FF6D26;" d="M470,448L470,448c-11.789-23.555-2.253-52.207,21.3-64l0,0C503.089,407.555,493.553,436.207,470,448
	L470,448z"/>
<path style="fill:#FF8F58;" d="M448,512l0.7-1.3c11.41-22.823,2.157-50.573-20.665-61.983c-0.012-0.006-0.023-0.012-0.035-0.017
	l-1.3-0.7l-1,2c-11.066,22.991-1.4,50.6,21.591,61.666C447.526,511.779,447.763,511.891,448,512L448,512z"/>
<path style="fill:#FF6D26;" d="M469.3,512L469.3,512c-11.789-23.555-2.253-52.207,21.3-64l0,0
	C502.388,471.555,492.853,500.207,469.3,512L469.3,512z"/>
<rect x="362.7" y="320" style="fill:#A23F00;" width="21.3" height="192"/>
<path style="fill:#FF6D26;" d="M384,384l-0.7-1.3c-11.41-22.823-2.157-50.573,20.665-61.983c0.012-0.006,0.023-0.012,0.035-0.017
	l1.3-0.7l1,2c11.066,22.991,1.4,50.6-21.591,61.666C384.474,383.779,384.237,383.891,384,384L384,384z"/>
<path style="fill:#FF8F58;" d="M362.7,384L362.7,384c11.789-23.555,2.253-52.207-21.3-64l0,0
	C329.612,343.555,339.147,372.207,362.7,384L362.7,384z"/>
<path style="fill:#FF6D26;" d="M384,448l-0.7-1.3c-11.41-22.823-2.157-50.573,20.665-61.983c0.012-0.006,0.023-0.012,0.035-0.017
	l1.3-0.7l1,2c11.066,22.991,1.4,50.6-21.591,61.666C384.474,447.779,384.237,447.891,384,448L384,448z"/>
<g>
	<path style="fill:#FF8F58;" d="M362.7,448L362.7,448c11.789-23.555,2.253-52.207-21.3-64l0,0
		C329.612,407.555,339.147,436.207,362.7,448L362.7,448z"/>
	<path style="fill:#FF8F58;" d="M362.9,512l0.7-1.3c11.41-22.823,2.157-50.573-20.665-61.983c-0.012-0.006-0.023-0.012-0.035-0.017
		l-1.3-0.7l-1,2c-11.066,22.991-1.4,50.6,21.591,61.666C362.426,511.779,362.663,511.891,362.9,512L362.9,512z"/>
</g>
<path style="fill:#FF6D26;" d="M384.2,512L384.2,512c-11.789-23.555-2.253-52.207,21.3-64l0,0
	C417.289,471.555,407.753,500.207,384.2,512L384.2,512z"/>
<g>
</g>
<g>
</g>
<g>
</g>
<g>
</g>
<g>
</g>
<g>
</g>
<g>
</g>
<g>
</g>
<g>
</g>
<g>
</g>
<g>
</g>
<g>
</g>
<g>
</g>
<g>
</g>
<g>
</g>
</svg>
