<?xml version="1.0" encoding="iso-8859-1"?>
<!-- Generator: Adobe Illustrator 19.0.0, SVG Export Plug-In . SVG Version: 6.00 Build 0)  -->
<svg version="1.1" id="Capa_1" xmlns="http://www.w3.org/2000/svg" xmlns:xlink="http://www.w3.org/1999/xlink" x="0px" y="0px"
	 viewBox="0 0 514.211 514.211" style="enable-background:new 0 0 514.211 514.211;" xml:space="preserve">
<g>
	
		<rect x="149.643" y="333.157" transform="matrix(-0.1859 -0.9826 0.9826 -0.1859 -228.4063 669.0735)" style="fill:#344A5E;" width="26.667" height="192.006"/>
	
		<rect x="254.95" y="415.964" transform="matrix(-0.9826 -0.1858 0.1858 -0.9826 616.0284 916.3268)" style="fill:#344A5E;" width="192.002" height="26.667"/>
	<rect x="243.239" y="295.545" style="fill:#344A5E;" width="26.667" height="116.267"/>
</g>
<path style="fill:#F3705A;" d="M188.839,97.145c0,0,11.733,48,22.4,66.133l16-16L188.839,97.145z"/>
<path style="fill:#FFD15C;" d="M193.106,67.278l2.133,35.2c0,0,5.333,41.6,20.267,72.533v11.733l-30.933,60.8l60.8,36.267
	l72.533-12.8l-12.8-69.333l-6.4-18.133v-4.267c0,0,24.533-37.333,20.267-81.067s-3.2-42.667-3.2-42.667l-61.867-26.667
	C253.906,28.878,201.639,19.278,193.106,67.278z"/>
<path style="fill:#E8EAE9;" d="M313.639,315.811l-3.2-100.267h-3.2c-8.533,19.2-27.733,32-50.133,32c-22.4,0-41.6-12.8-50.133-32
	h-3.2l-3.2,100.267H313.639z"/>
<path style="fill:#F3705A;" d="M211.239,163.278c0,0-12.8-29.867-12.8-43.733s-4.267-21.333,3.2-29.867c6.4-8.533,3.2-16,3.2-24.533
	s13.867-19.2,24.533-19.2s30.933,2.133,43.733,17.067c12.8,14.933,28.8,41.6,32,51.2c3.2,9.6,11.733,42.667-4.267,76.8
	c0,0,12.8-20.267,11.733-44.8c0,0,4.267,12.8-6.4,51.2c0,0,6.4-12.8,9.6-38.4c3.2-24.533,0-49.067-9.6-71.467
	c-2.133-5.333-4.267-9.6-7.467-13.867c0,0,22.4,26.667,22.4,71.467c0,0,22.4-42.667,18.133-77.867c-3.2-22.4-22.4-48-43.733-57.6
	s-45.867-13.867-68.267-4.267s-41.6,22.4-48,35.2c-6.4,12.8-5.333,42.667,0,60.8C184.572,119.545,195.239,149.411,211.239,163.278z"
	/>
<path style="fill:#F7B64C;" d="M215.506,175.011v11.733l-9.6,37.333c74.667-4.267,92.8-44.8,92.8-44.8
	C261.372,220.878,215.506,175.011,215.506,175.011z"/>
<path style="fill:#415A6B;" d="M426.706,315.811c-1.067-10.667-1.067-19.2-1.067-25.6c-2.133-46.933-11.733-50.133-11.733-50.133
	l-32,22.4l-17.067,41.6v12.8h61.867V315.811z"/>
<path style="fill:#344A5E;" d="M381.906,315.811c9.6-48,32-75.733,32-75.733l-89.6-30.933l-7.467,1.067
	c-6.4,17.067-12.8,58.667-19.2,105.6H381.906z"/>
<g>
	<path style="fill:#415A6B;" d="M281.639,315.811h34.133c1.067-4.267,2.133-8.533,3.2-10.667c12.8-34.133,12.8-34.133,12.8-34.133
		l-12.8-22.4l25.6,4.267c0,0-7.467-32-20.267-44.8c-12.8-12.8-19.2-23.467-25.6-25.6c0,0,2.133,44.8-11.733,106.667
		C284.839,297.678,283.772,306.211,281.639,315.811z"/>
	<path style="fill:#415A6B;" d="M148.306,315.811v-12.8l-17.067-41.6l-32-22.4c0,0-9.6,3.2-11.733,50.133
		c0,6.4-1.067,14.933-1.067,25.6h61.867V315.811z"/>
</g>
<path style="fill:#344A5E;" d="M216.572,315.811c-6.4-46.933-12.8-88.533-19.2-105.6l-7.467-1.067l-89.6,30.933
	c0,0,22.4,28.8,32,75.733H216.572z"/>
<path style="fill:#415A6B;" d="M181.372,271.011c0,0,0,0,12.8,34.133c1.067,3.2,2.133,6.4,3.2,10.667h34.133
	c-1.067-9.6-2.133-18.133-4.267-25.6c-13.867-61.867-11.733-106.667-11.733-106.667c-6.4,2.133-13.867,12.8-25.6,25.6
	c-12.8,12.8-20.267,44.8-20.267,44.8l25.6-4.267L181.372,271.011z"/>
<circle style="fill:#FFD15C;" cx="68.306" cy="447.011" r="67.2"/>
<circle style="fill:#F7B64C;" cx="68.306" cy="447.011" r="35.2"/>
<circle style="fill:#66C6B9;" cx="445.906" cy="447.011" r="67.2"/>
<circle style="fill:#4ABAA5;" cx="445.906" cy="447.011" r="35.2"/>
<circle style="fill:#F3705A;" cx="257.106" cy="411.811" r="67.2"/>
<circle style="fill:#F05540;" cx="257.106" cy="411.811" r="35.2"/>
<g>
</g>
<g>
</g>
<g>
</g>
<g>
</g>
<g>
</g>
<g>
</g>
<g>
</g>
<g>
</g>
<g>
</g>
<g>
</g>
<g>
</g>
<g>
</g>
<g>
</g>
<g>
</g>
<g>
</g>
</svg>
