<?xml version="1.0" encoding="iso-8859-1"?>
<!-- Generator: Adobe Illustrator 19.0.0, SVG Export Plug-In . SVG Version: 6.00 Build 0)  -->
<svg version="1.1" id="Capa_1" xmlns="http://www.w3.org/2000/svg" xmlns:xlink="http://www.w3.org/1999/xlink" x="0px" y="0px"
	 viewBox="0 0 512 512" style="enable-background:new 0 0 512 512;" xml:space="preserve">
<path style="fill:#C9F3FF;" d="M31.997,436V185.51c0-20.708,16.787-37.494,37.494-37.494H112.5H405h37.502
	c20.708,0,37.495,16.787,37.495,37.494V436"/>
<g>
	<path style="fill:#FFFFFF;" d="M346,148.016H204.283c-14.516,0-26.283,11.767-26.283,26.283l0,0v180l0,0
		c0-14.516,11.767-26.283,26.283-26.283H346V148.016z"/>
	<path style="fill:#FFFFFF;" d="M10,148.016h141.717c14.516,0,26.283,11.767,26.283,26.283l0,0v180l0,0
		c0-14.516-11.767-26.283-26.283-26.283H10V148.016z"/>
</g>
<rect x="10" y="328.01" style="fill:#FFB954;" width="336" height="39.01"/>
<path style="fill:#D8D8E4;" d="M324.142,436H502l0,0v18c0,26.51-21.49,48-48,48H58c-26.51,0-48-21.49-48-48v-18h177.847H324.142z"/>
<g>
	<path style="fill:#FFCDAC;" d="M437.885,187.096v52.115c0,47.433-38.452,85.885-85.885,85.885l0,0
		c-47.433,0-85.885-38.452-85.885-85.885v-52.115H437.885z"/>
	<path style="fill:#FFCDAC;" d="M253.439,239.501h12.676v-46.647h-12.676c-12.881,0-23.324,10.442-23.324,23.324l0,0
		C230.115,229.059,240.558,239.501,253.439,239.501z"/>
	<path style="fill:#FFCDAC;" d="M450.562,192.854h-12.676v46.647h12.676c12.881,0,23.324-10.442,23.324-23.324l0,0
		C473.885,203.297,463.443,192.854,450.562,192.854z"/>
</g>
<polygon style="fill:#5A54E0;" points="437.885,115.438 437.885,181.465 352,219.251 266.115,181.465 266.115,115.438 "/>
<path style="fill:#7D9BFF;" d="M502,82.394l-150,72.394L202,82.394L352,10L502,82.394z"/>
<path d="M278.333,459h-44.166c-5.522,0-10,4.478-10,10s4.478,10,10,10h44.166c5.522,0,10-4.478,10-10S283.856,459,278.333,459z"/>
<path d="M359.07,89.46c1.86-1.86,2.931-4.44,2.931-7.07s-1.07-5.2-2.931-7.07c-1.859-1.859-4.439-2.93-7.069-2.93
	s-5.21,1.07-7.07,2.93c-1.86,1.86-2.93,4.44-2.93,7.07c0,2.641,1.069,5.21,2.93,7.07c1.86,1.87,4.44,2.93,7.07,2.93
	S357.21,91.331,359.07,89.46z"/>
<path d="M506.494,73.47c-0.049-0.027-0.093-0.055-0.147-0.082l-150-72.394c-2.746-1.326-5.947-1.326-8.693,0l-150,72.394
	c-3.456,1.668-5.653,5.168-5.653,9.006s2.197,7.338,5.653,9.006l58.462,28.215v61.85c0,0.469,0.038,0.932,0.102,1.388h-2.779
	c-18.374,0-33.323,14.949-33.323,33.324c0,18.374,14.949,33.323,33.323,33.323h3.23c3.039,28.346,18.479,53.031,40.773,68.514
	h-93.158c-5.852,0-11.384,1.393-16.283,3.863v-147.58c0-8.979,7.305-16.283,16.283-16.283h25.832c5.522,0,10-4.478,10-10
	s-4.478-10-10-10h-25.832c-10.336,0-19.668,4.351-26.283,11.309c-6.615-6.958-15.947-11.309-26.283-11.309H10
	c-5.522,0-10,4.478-10,10v180v39.014c0,5.522,4.478,10,10,10h11.997V426H10c-5.522,0-10,4.478-10,10v18c0,31.981,26.019,58,58,58
	h396c31.981,0,58-26.019,58-58v-18c0-5.522-4.478-10-10-10h-12.003V279c0-5.522-4.478-10-10-10s-10,4.478-10,10v147h-428v-48.973
	H346c5.522,0,10-4.478,10-10v-32.021c47.581-1.963,86.321-38.76,91.332-85.506h3.23c18.374,0,33.323-14.949,33.323-33.323
	c0-18.375-14.949-33.324-33.323-33.324h-2.779c0.064-0.456,0.102-0.918,0.102-1.388v-61.85L492,98.324v45.664
	c0,5.522,4.478,10,10,10s10-4.478,10-10V82.394C512,78.49,509.757,75.116,506.494,73.47z M492,454c0,20.953-17.047,38-38,38H58
	c-20.953,0-38-17.047-38-38v-8h472V454z M352,21.104l106.273,51.29h-78.148c-5.522,0-10,4.478-10,10s4.478,10,10,10h78.148
	L352,143.685l-126.993-61.29L352,21.104z M240.115,216.178c0-7.347,5.977-13.324,13.323-13.324h2.677v26.647h-2.677
	C246.092,229.501,240.115,223.525,240.115,216.178z M20,158.015h131.717c8.979,0,16.283,7.305,16.283,16.283v147.58
	c-4.899-2.471-10.432-3.863-16.283-3.863H20V158.015z M20,338.014h131.717c8.979,0,16.283,7.305,16.283,16.283
	c0,0.948,0.141,1.862,0.387,2.73H20V338.014z M187.613,357.029c0.247-0.869,0.387-1.783,0.387-2.73
	c0-8.979,7.305-16.283,16.283-16.283H336v19.014H187.613V357.029z M352,315.096c-41.843,0-75.885-34.042-75.885-75.886v-42.42
	l71.857,31.614c1.283,0.564,2.655,0.847,4.027,0.847s2.744-0.282,4.027-0.847l71.857-31.614v42.42
	C427.885,281.054,393.843,315.096,352,315.096z M463.885,216.178c0,7.347-5.977,13.323-13.323,13.323h-2.677v-26.647h2.677
	C457.908,202.854,463.885,208.831,463.885,216.178z M427.885,174.941L352,208.327l-75.885-33.386v-45.672l71.538,34.526
	c1.373,0.663,2.86,0.994,4.347,0.994s2.974-0.331,4.347-0.994l71.538-34.526L427.885,174.941L427.885,174.941z"/>
<path d="M502,178.59c-2.63,0-5.21,1.07-7.07,2.93c-1.86,1.86-2.93,4.44-2.93,7.07s1.069,5.21,2.93,7.07
	c1.86,1.859,4.44,2.93,7.07,2.93s5.21-1.07,7.069-2.93c1.86-1.86,2.931-4.44,2.931-7.07s-1.07-5.21-2.931-7.07
	C507.21,179.661,504.63,178.59,502,178.59z"/>
<path d="M126.81,252.001c-2.63,0-5.21,1.069-7.069,2.93c-1.87,1.87-2.931,4.44-2.931,7.07s1.061,5.21,2.931,7.069
	c1.859,1.87,4.43,2.931,7.069,2.931c2.63,0,5.21-1.061,7.07-2.931c1.86-1.859,2.93-4.43,2.93-7.069c0-2.63-1.069-5.21-2.93-7.07
	C132.01,253.071,129.44,252.001,126.81,252.001z"/>
<path d="M89,252.018H57c-5.522,0-10,4.478-10,10s4.478,10,10,10h32c5.522,0,10-4.478,10-10S94.523,252.018,89,252.018z"/>
<path d="M57,224.012h69.807c5.522,0,10-4.478,10-10s-4.478-10-10-10H57c-5.522,0-10,4.478-10,10S51.478,224.012,57,224.012z"/>
<g>
</g>
<g>
</g>
<g>
</g>
<g>
</g>
<g>
</g>
<g>
</g>
<g>
</g>
<g>
</g>
<g>
</g>
<g>
</g>
<g>
</g>
<g>
</g>
<g>
</g>
<g>
</g>
<g>
</g>
</svg>
